<?xml version="1.0" standalone="no"?>
<!DOCTYPE svg PUBLIC "-//W3C//DTD SVG 20010904//EN"
 "http://www.w3.org/TR/2001/REC-SVG-20010904/DTD/svg10.dtd">
<svg version="1.0" xmlns="http://www.w3.org/2000/svg"
 width="1024.000000pt" height="1024.000000pt" viewBox="0 0 1024.000000 1024.000000"
 preserveAspectRatio="xMidYMid meet">
<metadata>
Created by potrace 1.11, written by Peter Selinger 2001-2013
</metadata>
<g transform="translate(0.000000,1024.000000) scale(0.100000,-0.100000)"
fill="#000000" stroke="none">
<path d="M5595 8451 c-120 -31 -196 -135 -191 -260 1 -41 10 -80 22 -103 11
-21 99 -118 197 -216 97 -98 177 -181 177 -184 0 -11 -1210 -1218 -1221 -1218
-5 0 -40 15 -77 34 -60 30 -226 92 -270 101 -9 2 -51 10 -93 19 -108 22 -158
27 -294 27 -107 0 -145 -3 -220 -16 -268 -44 -482 -136 -690 -294 -103 -79
-309 -286 -335 -338 -33 -64 -34 -168 -3 -229 14 -25 285 -303 719 -737 l698
-697 -831 -833 c-913 -915 -864 -859 -859 -980 5 -102 76 -198 171 -231 59
-20 151 -13 201 14 21 12 409 391 861 843 l822 821 690 -689 c402 -402 705
-697 727 -708 21 -11 66 -22 100 -25 97 -7 144 20 291 169 66 68 134 140 150
159 73 86 185 272 221 365 6 17 17 44 23 60 18 45 17 42 49 164 86 333 50 689
-102 1010 l-40 84 609 609 609 609 184 -184 c161 -160 192 -187 240 -204 182
-68 369 78 345 269 -4 29 -15 68 -25 88 -10 19 -609 627 -1332 1351 -971 974
-1324 1321 -1353 1334 -46 20 -127 27 -170 16z m1168 -1719 l587 -587 -590
-589 -590 -589 -589 589 -590 589 587 587 c323 323 589 588 592 588 3 0 269
-264 593 -588z m-2671 -621 c140 -37 284 -108 380 -187 43 -35 1390 -1376
1458 -1450 104 -115 204 -329 226 -484 10 -69 11 -239 1 -305 -23 -166 -110
-359 -220 -488 l-24 -28 -1358 1355 -1358 1356 19 21 c44 49 214 149 309 182
171 59 406 71 567 28z"/>
</g>
</svg>
