<svg xmlns="http://www.w3.org/2000/svg" data-name="Layer 1" viewBox="0 0 100 125" x="0px" y="0px"><title>Artboard 164</title><path d="M56.77,3.11a4,4,0,1,0-5.66,5.66l5.17,5.17L37.23,33A23.32,23.32,0,0,0,9.42,36.8L7.11,39.11a4,4,0,0,0,0,5.66l21.3,21.29L3.23,91.23a4,4,0,0,0,5.66,5.66L34.06,71.72l21,21a4,4,0,0,0,5.66,0l2.31-2.31a23.34,23.34,0,0,0,3.81-27.82l19-19,5.17,5.18a4,4,0,0,0,5.66-5.66Zm1.16,81.16L15.61,42a15.37,15.37,0,0,1,21.19.51L57.42,63.08A15.39,15.39,0,0,1,57.93,84.27Zm4-28L43.59,37.94,61.94,19.59,80.28,37.94Z"/></svg>